<?xml version="1.0" encoding="utf-8"?>
<!-- Generator: Adobe Illustrator 26.0.1, SVG Export Plug-In . SVG Version: 6.00 Build 0)  -->
<svg version="1.1" id="Layer_1" xmlns="http://www.w3.org/2000/svg" xmlns:xlink="http://www.w3.org/1999/xlink" x="0px" y="0px"
	 viewBox="0 0 585.4 572.2" style="enable-background:new 0 0 585.4 572.2;" xml:space="preserve">
<path d="M616-24.9c-1.2-0.6-2.5-0.3-3.6-0.4c-211,0-422.1,0-633.1,0c-4.7,0-4.2-0.5-4.2,4.2c0,206.2,0,412.4,0,618.6
	c0,1.2-0.3,2.5,0.3,3.7c212.5,0,425.1,0,637.6,0.1c2.5,0,3.1-0.5,3.1-3.1C616,390.5,616,182.8,616-24.9z M542.8,237.4
	c-5.9,6.1-11.8,12.3-17.8,18.4c-13.3,13.6-26.9,27-40,40.8c-6.9,7.3-14.4,14.2-21.1,21.7c-7.1,7.8-14.8,15-22,22.6
	c-6.5,6.8-12.3,14-14.4,23.6c-1.5,6.7-0.5,13.2,0.5,19.7c2,12.7,4,25.3,6.1,37.9c1.7,10.3,3.4,20.6,5.1,30.9
	c1.8,11.1,3.6,22.2,5.5,33.3c2.3,13.8,4.6,27.5,6.7,41.3c0.3,2.1,1.2,4.1,0.3,6.4c-1.7,4.8-6.3,7-10.7,4.6
	c-10.2-5.5-20.4-11.2-30.6-16.8c-10.4-5.8-20.9-11.6-31.3-17.5c-14.7-8.2-29.4-16.4-44.1-24.5c-7.3-4-14.5-8.2-21.9-11.9
	c-12.6-6.3-25.1-5.6-37.3,1.1c-10.8,5.9-21.4,11.9-32.1,17.9c-18.8,10.4-37.6,20.9-56.4,31.3c-12,6.6-24,13.2-36,19.9
	c-3.3,1.8-6.4,2.1-9.3-0.3c-2.6-2.1-3.2-4.9-2.6-8.4c3.1-18.3,5.9-36.7,9-55.1c2.3-13.3,4.4-26.7,6.6-40.1c3-18.1,5.9-36.3,8.9-54.5
	c1.8-11-0.5-21.1-6.8-30.1c-2.2-3.2-5.1-6.1-7.8-8.9c-11-11.3-22.1-22.4-33-33.7c-10.4-10.8-21.1-21.3-31.4-32.2
	c-7.1-7.6-14.8-14.6-21.8-22.4c-4.7-5.2-9.7-10-14.5-15c-2.2-2.2-3.4-4.7-2.5-7.9c1-3.3,3.4-5.2,6.7-5.7c12.9-2,25.8-3.8,38.6-5.8
	c11.4-1.8,22.9-3.7,34.3-5.4c12.9-2,25.8-3.7,38.6-5.8c12.9-2.2,26.1-3.1,38.8-6.8c6.9-2.1,12.6-6.3,17.1-11.9
	c6.1-7.8,9-17.3,13.5-25.9c3.3-6.4,5.9-13,9-19.5c10.4-22.2,20.9-44.4,31.4-66.6c4.9-10.4,9.9-20.8,14.7-31.3
	c1.5-3.2,3.9-4.7,7.1-4.6c3.3,0.2,5.6,2,7,5.3c3.2,7.5,6.9,14.9,10.4,22.4c10.1,21.5,20.2,42.9,30.3,64.4
	c6.3,13.5,12.7,26.9,18.9,40.4c2.9,6.3,5.5,12.8,10.5,17.9c7.1,7.3,16,10.8,26,12.2c13.2,1.8,26.3,4.1,39.5,6.1
	c13.1,2,26.2,3.8,39.3,5.8c9.8,1.5,19.6,3.3,29.4,4.8c10.2,1.6,20.5,3,30.7,4.6c4.6,0.7,7.5,3.7,7.4,7.8
	C545.2,234.1,544.3,235.9,542.8,237.4z"/>
</svg>
